<?xml version="1.0" encoding="iso-8859-1"?>
<!-- Uploaded to: SVG Repo, www.svgrepo.com, Generator: SVG Repo Mixer Tools -->
<svg height="800px" width="800px" version="1.1" id="Layer_1" xmlns="http://www.w3.org/2000/svg" xmlns:xlink="http://www.w3.org/1999/xlink" 
	 viewBox="0 0 392.598 392.598" xml:space="preserve">
<g>
	<path style="fill:#FFFFFF;" d="M274.166,255.257h-42.667c-0.711,17.325-2.909,33.745-6.594,48.808
		c10.537,1.616,20.945,3.556,31.354,5.883C266.214,293.657,272.485,275.103,274.166,255.257z"/>
	<path style="fill:#FFFFFF;" d="M159.16,119.952v47.968c12.347-0.323,24.76-1.034,37.042-2.263
		C187.022,142.384,173.834,125.576,159.16,119.952z"/>
	<path style="fill:#FFFFFF;" d="M201.891,358.82c15.192-7.176,28.832-17.325,40.016-29.608c-7.758-1.552-15.451-2.844-23.273-4.008
		C214.109,337.875,208.485,349.253,201.891,358.82z"/>
	<path style="fill:#FFFFFF;" d="M196.396,322.424c-12.347-1.228-24.824-2.004-37.236-2.327v48.549
		C174.028,362.958,187.152,345.956,196.396,322.424z"/>
	<path style="fill:#FFFFFF;" d="M231.564,233.406h42.667c-1.681-20.105-8.145-38.853-18.166-55.143
		c-10.343,2.263-20.687,4.202-31.16,5.818C228.59,199.208,230.853,215.822,231.564,233.406z"/>
	<path style="fill:#FFFFFF;" d="M202.99,186.925c-14.545,1.552-29.22,2.521-43.83,2.844v43.572h50.618
		C209.002,216.857,206.61,201.148,202.99,186.925z"/>
	<path style="fill:#FFFFFF;" d="M218.44,163.006c7.758-1.164,15.386-2.457,23.014-3.943c-11.119-12.154-24.501-22.109-39.564-29.156
		C208.291,139.345,213.98,150.465,218.44,163.006z"/>
	<path style="fill:#FFFFFF;" d="M159.16,298.311c14.675,0.323,29.349,1.228,43.96,2.844c3.556-14.093,5.883-29.608,6.594-45.964
		H159.16C159.16,255.192,159.16,298.311,159.16,298.311z"/>
	<path style="fill:#FFFFFF;" d="M77.834,325.139c-7.822,1.164-15.515,2.457-23.273,4.008c11.184,12.347,24.824,22.497,40.016,29.608
		C88.113,349.253,82.424,337.875,77.834,325.139z"/>
	<path style="fill:#FFFFFF;" d="M22.303,233.406h42.602c0.711-17.519,3.038-34.133,6.723-49.39
		c-10.408-1.616-20.881-3.556-31.16-5.818C30.448,194.618,24.048,213.301,22.303,233.406z"/>
	<path style="fill:#FFFFFF;" d="M78.028,163.006c4.59-12.541,10.149-23.661,16.549-33.164
		c-15.063,7.111-28.444,17.002-39.564,29.156C62.642,160.55,70.335,161.842,78.028,163.006z"/>
	<path style="fill:#FFFFFF;" d="M100.267,165.721c12.283,1.228,24.63,2.004,37.042,2.263v-47.968
		C122.634,125.576,109.511,142.384,100.267,165.721z"/>
	<path style="fill:#FFFFFF;" d="M64.905,255.257H22.303c1.681,19.846,7.952,38.4,17.842,54.626
		c10.343-2.327,20.881-4.267,31.354-5.883C67.943,288.937,65.616,272.582,64.905,255.257z"/>
	<path style="fill:#FFFFFF;" d="M137.309,368.646v-48.549c-12.412,0.323-24.889,1.099-37.236,2.327
		C109.317,345.956,122.44,362.958,137.309,368.646z"/>
	<path style="fill:#FFFFFF;" d="M137.309,255.257H86.691c0.711,16.291,3.038,31.806,6.594,45.964
		c14.61-1.616,29.285-2.521,43.96-2.844v-43.119L137.309,255.257L137.309,255.257z"/>
	<path style="fill:#FFFFFF;" d="M137.309,189.705c-14.675-0.323-29.285-1.228-43.83-2.844c-3.62,14.222-6.012,29.996-6.723,46.545
		h50.618V189.77h-0.065V189.705z"/>
</g>
<g>
	<path style="fill:#194F82;" d="M148.299,96.097C66.521,96.097,0,162.618,0,244.267c0,81.778,66.521,148.299,148.299,148.299
		s148.299-66.521,148.299-148.299C296.469,162.618,229.947,96.097,148.299,96.097z M137.309,189.705v43.636H86.756
		c0.711-16.549,3.103-32.194,6.723-46.545C108.024,188.412,122.699,189.446,137.309,189.705z M137.309,120.016v47.903
		c-12.347-0.323-24.695-1.034-37.042-2.263C109.511,142.384,122.634,125.64,137.309,120.016z M94.578,129.907
		c-6.4,9.438-11.96,20.558-16.549,33.099c-7.758-1.164-15.386-2.457-23.014-3.943C66.133,146.909,79.515,136.954,94.578,129.907z
		 M40.469,178.263c10.343,2.263,20.687,4.202,31.16,5.818c-3.685,15.192-6.012,31.806-6.723,49.39H22.303
		C24.048,213.366,30.448,194.618,40.469,178.263z M40.145,309.883c-9.891-16.226-16.162-34.78-17.842-54.626h42.602
		c0.711,17.325,2.909,33.745,6.594,48.808C61.026,305.616,50.554,307.62,40.145,309.883z M54.562,329.147
		c7.758-1.552,15.451-2.844,23.273-4.008c4.59,12.735,10.214,24.113,16.743,33.616C79.321,351.515,65.745,341.43,54.562,329.147z
		 M137.309,368.646c-14.869-5.689-28.057-22.626-37.236-46.222c12.412-1.228,24.824-2.004,37.236-2.327
		C137.309,320.097,137.309,368.646,137.309,368.646z M137.374,298.311c-14.739,0.323-29.414,1.293-44.024,2.844
		c-3.556-14.093-5.883-29.608-6.594-45.964h50.618V298.311z M241.455,158.998c-7.628,1.552-15.321,2.844-23.014,4.008
		c-4.59-12.541-10.15-23.661-16.549-33.164C216.954,136.954,230.335,146.844,241.455,158.998z M159.16,119.952
		c14.739,5.624,27.798,22.432,37.042,45.64c-12.283,1.293-24.63,2.069-37.042,2.327C159.16,167.919,159.16,119.952,159.16,119.952z
		 M159.16,189.705c14.675-0.323,29.285-1.228,43.83-2.844c3.62,14.222,6.012,29.996,6.723,46.545H159.16
		C159.16,233.406,159.16,189.705,159.16,189.705z M159.16,255.257h50.554c-0.711,16.291-3.038,31.806-6.594,45.964
		c-14.61-1.616-29.285-2.521-43.96-2.844L159.16,255.257L159.16,255.257z M159.16,368.646v-48.549
		c12.412,0.323,24.889,1.099,37.236,2.327C187.216,345.956,174.028,362.958,159.16,368.646z M201.891,358.82
		c6.465-9.568,12.154-20.945,16.743-33.681c7.822,1.164,15.515,2.457,23.273,4.008C230.723,341.495,217.147,351.644,201.891,358.82z
		 M256.323,309.818c-10.343-2.263-20.881-4.202-31.354-5.818c3.62-15.063,5.947-31.418,6.594-48.808h42.667
		C272.485,275.038,266.15,293.657,256.323,309.818z M274.166,233.406h-42.667c-0.711-17.519-3.038-34.133-6.723-49.39
		c10.408-1.616,20.881-3.556,31.16-5.818C266.02,194.618,272.485,213.301,274.166,233.406z"/>
	<path style="fill:#194F82;" d="M257.745,83.232c-6.012,0-10.925,4.848-10.925,10.925c0,6.077,4.848,10.925,10.925,10.925
		c16.162,0,29.22,12.994,29.22,28.962c0,6.012,4.848,10.925,10.925,10.925c6.012,0,10.925-4.848,10.925-10.925
		C308.752,106.053,285.931,83.232,257.745,83.232z"/>
	<path style="fill:#194F82;" d="M257.745,39.725c-6.012,0-10.925,4.848-10.925,10.925s4.848,10.925,10.925,10.925
		c40.275,0,73.05,32.517,73.05,72.469c0,6.012,4.849,10.925,10.925,10.925c6.012,0,10.925-4.848,10.925-10.925
		C352.517,82.069,310.044,39.725,257.745,39.725z"/>
	<path style="fill:#194F82;" d="M257.745,0.032c-6.012,0-10.925,4.848-10.925,10.925c0,6.012,4.848,10.925,10.925,10.925
		c62.255,0,113.002,50.36,113.002,112.291c0,6.012,4.848,10.925,10.925,10.925s10.925-4.848,10.925-10.925
		C392.533,60.154,332.089,0.032,257.745,0.032z"/>
</g>
<g>
	<path style="fill:#FFC10D;" d="M196.202,165.721c-2.65-6.723-5.689-12.8-8.986-18.36c-8.792-3.556-18.23-6.012-28.121-7.046v27.669
		C171.572,167.725,183.919,166.95,196.202,165.721z"/>
	<path style="fill:#FFC10D;" d="M159.16,298.311c14.675,0.323,29.349,1.228,43.96,2.844c3.556-14.093,5.883-29.608,6.594-45.964
		H159.16C159.16,255.192,159.16,298.311,159.16,298.311z"/>
	<path style="fill:#FFC10D;" d="M100.073,322.424c2.715,6.982,5.818,13.317,9.18,18.941c8.792,3.556,18.23,6.012,28.057,7.046
		v-28.251C124.897,320.42,112.485,321.196,100.073,322.424z"/>
	<path style="fill:#FFC10D;" d="M231.564,233.406h20.687c-1.939-18.877-9.051-36.137-19.653-50.683
		c-2.651,0.453-5.172,0.905-7.822,1.293C228.59,199.208,230.853,215.822,231.564,233.406z"/>
	<path style="fill:#FFC10D;" d="M159.16,233.406h50.618c-0.711-16.549-3.103-32.323-6.723-46.545
		c-14.545,1.552-29.22,2.521-43.83,2.844v43.636h-0.065V233.406z"/>
	<path style="fill:#FFC10D;" d="M137.309,189.705c-14.675-0.323-29.285-1.228-43.83-2.844c-3.62,14.222-6.012,29.996-6.723,46.545
		h50.618V189.77h-0.065V189.705z"/>
	<path style="fill:#FFC10D;" d="M196.396,322.424c-12.347-1.228-24.824-2.004-37.236-2.327v28.25
		c9.826-1.034,19.265-3.491,28.057-7.046C190.578,335.612,193.616,329.341,196.396,322.424z"/>
	<path style="fill:#FFC10D;" d="M231.564,255.257c-0.711,17.325-2.909,33.745-6.594,48.808c2.715,0.388,5.301,0.905,8.016,1.422
		c10.408-14.481,17.325-31.547,19.329-50.166h-20.816v-0.065H231.564z"/>
	<path style="fill:#FFC10D;" d="M93.349,301.156c14.61-1.616,29.285-2.521,43.96-2.844v-43.119H86.691
		C87.467,271.548,89.794,287.063,93.349,301.156z"/>
	<path style="fill:#FFC10D;" d="M64.905,255.257H44.218c1.939,18.618,8.857,35.749,19.329,50.166
		c2.715-0.453,5.301-0.905,8.016-1.422C67.943,288.937,65.616,272.582,64.905,255.257z"/>
	<path style="fill:#FFC10D;" d="M109.253,147.297c-3.232,5.56-6.271,11.636-8.986,18.36c12.283,1.228,24.63,2.004,37.042,2.263
		v-27.669C127.483,141.285,118.044,143.741,109.253,147.297z"/>
	<path style="fill:#FFC10D;" d="M64.905,233.406c0.711-17.519,3.038-34.133,6.723-49.39c-2.651-0.388-5.172-0.84-7.822-1.293
		c-10.667,14.545-17.713,31.806-19.653,50.683H64.905z"/>
</g>
</svg>